<?xml version="1.0" encoding="utf-8"?>
<!-- Generator: Adobe Illustrator 22.1.0, SVG Export Plug-In . SVG Version: 6.00 Build 0)  -->
<svg version="1.1" id="Designs" xmlns="http://www.w3.org/2000/svg" xmlns:xlink="http://www.w3.org/1999/xlink" x="0px" y="0px"
	 viewBox="0 0 188 87.4" style="enable-background:new 0 0 188 87.4;" xml:space="preserve">
<style type="text/css">
	.st0{fill:url(#SVGID_1_);}
</style>
<g id="_x30_3">
	<g id="D1">
		<radialGradient id="SVGID_1_" cx="23.5544" cy="-4.3997" r="251.5061" gradientUnits="userSpaceOnUse">
			<stop  offset="0" style="stop-color:#28AAE1"/>
			<stop  offset="0.1164" style="stop-color:#28A6DD"/>
			<stop  offset="0.237" style="stop-color:#2699D3"/>
			<stop  offset="0.3595" style="stop-color:#2485C0"/>
			<stop  offset="0.4825" style="stop-color:#2068A7"/>
			<stop  offset="0.6" style="stop-color:#1C4589"/>
			<stop  offset="0.6907" style="stop-color:#18356B"/>
			<stop  offset="0.826" style="stop-color:#122043"/>
			<stop  offset="0.9339" style="stop-color:#0E142B"/>
			<stop  offset="1" style="stop-color:#0D0F22"/>
		</radialGradient>
		<path class="st0" d="M72.2,13.8c-0.3,0-0.7,0-1,0H46.9c-1,0-1.8,0.7-1.8,1.8c0,0.9,0.7,1.6,1.8,1.6h14.2h3.6
			c0.9,0,1.6,0.7,1.6,1.6c0,1-0.7,1.7-1.6,1.7H36.1c-0.9,0-1.6,0.7-1.6,1.6c0,0.9,0.7,1.7,1.6,1.7H72c0.9,0,1.6,0.7,1.6,1.6
			c0,0.9-0.7,1.6-1.6,1.6H39.8c-0.9,0-1.6,0.7-1.6,1.7c0,0.9,0.7,1.6,1.6,1.6h23.8c0.9,0,1.6,0.7,1.6,1.6c0,1-0.7,1.7-1.6,1.7
			c-6.1,0-12.1,0-18.1,0H36c-1,0-1.7,0.7-1.7,1.6c0,0.9,0.7,1.6,1.7,1.6h5.5h13.1c0.9,0,1.6,0.9,1.6,1.7c0,0.9-0.7,1.6-1.6,1.6H36
			c-1,0-1.7,0.7-1.7,1.7c0,0.9,0.7,1.6,1.7,1.6h26.1c0.9,0,1.6,0.7,1.6,1.6c0,1-0.7,1.7-1.6,1.7c-11.5,0-23.2,0-34.8,0
			c-0.9,0-1.6,0.7-1.6,1.6c0,0.9,0.7,1.6,1.6,1.6h8.5h9.5c0.9,0,1.8,0.7,1.8,1.8c0,0.9-0.7,1.6-1.6,1.6H32c-0.9,0-1.6,0.7-1.6,1.6
			c0,1,0.7,1.7,1.6,1.7h13.3h5.3c0.9,0,1.6,0.7,1.6,1.6l0,0c0,0.9-0.7,1.7-1.6,1.7c-5,0-10.1,0-15,0c-1,0-1.8,0.7-1.8,1.6
			c0,0.9,0.7,1.6,1.8,1.6h3.8c3.8,5.8,10.4,9.8,18,9.8H68c3.1,8.1,10.9,14.1,20.3,14.1c25.3,0,50.7,0,76.1,0
			c13.1,0,23.7-10.6,23.7-23.6c0-12.5-9.8-22.9-22.2-23.6c-2.5-15-15.6-26.1-31-26.1c-1.5,0-2.9,0.1-4.4,0.3
			C124.8,5.8,115.1,0,104,0C92.8,0,83,5.8,77.5,14.6C75.9,14.1,74.1,13.8,72.2,13.8L72.2,13.8z M25.5,60.3h5.7
			c0.9,0,1.6,0.7,1.6,1.6c0,0.9-0.7,1.6-1.6,1.6h-5.7c-0.9,0-1.8-0.7-1.8-1.6l0,0C23.7,61,24.6,60.3,25.5,60.3L25.5,60.3z
			 M13.8,53.6h13.3c0.9,0,1.6,0.7,1.6,1.6c0,1-0.7,1.7-1.6,1.7H13.8c-1,0-1.7-0.7-1.7-1.7C12,54.3,12.8,53.6,13.8,53.6L13.8,53.6z
			 M17.9,47h3.5c0.9,0,1.6,0.7,1.6,1.6c0,0.9-0.7,1.6-1.6,1.6h-3.5c-0.9,0-1.6-0.7-1.6-1.6C16.3,47.8,17,47,17.9,47L17.9,47z
			 M7.1,40.3h13c1,0,1.7,0.7,1.7,1.7c0,0.9-0.7,1.6-1.7,1.6h-13c-0.9,0-1.6-0.7-1.6-1.6C5.5,41.1,6.2,40.3,7.1,40.3L7.1,40.3z
			 M27.2,40.3H30c1,0,1.8,0.7,1.8,1.7c0,0.9-0.7,1.6-1.8,1.6h-2.8c-1,0-1.7-0.7-1.7-1.6C25.5,41.1,26.2,40.3,27.2,40.3L27.2,40.3z
			 M21.1,33.8h7.6c0.9,0,1.6,0.7,1.6,1.6c0,0.9-0.7,1.6-1.6,1.6h-7.6c-1,0-1.7-0.7-1.7-1.6C19.3,34.5,20.1,33.8,21.1,33.8L21.1,33.8
			z M40.8,13.8h-2.9c-0.9,0-1.6,0.7-1.6,1.8c0,0.9,0.7,1.6,1.6,1.6h2.9c0.9,0,1.7-0.7,1.7-1.6C42.5,14.6,41.7,13.8,40.8,13.8
			L40.8,13.8z M8.4,27.1h24.3c1,0,1.7,0.7,1.7,1.7c0,0.9-0.7,1.6-1.7,1.6H8.4c-0.9,0-1.6-0.7-1.6-1.6C6.8,27.8,7.5,27.1,8.4,27.1
			L8.4,27.1z M22.2,20.5h6c0.9,0,1.6,0.7,1.6,1.6c0,0.9-0.7,1.7-1.6,1.7h-6c-0.9,0-1.6-0.9-1.6-1.7C20.6,21.3,21.4,20.5,22.2,20.5
			L22.2,20.5z M85.1,52.1l5-1.2c-2.5-12.8,10.5-20.5,21.8-13.7c3.6-9.6,12.4-15.7,23.1-15.7c12,0,21.8,8.6,23.7,20.2
			c-5,1.5-9.8,5-12.8,11.1c11.2-9.2,34.9-8.3,34.9,10.9c0,8.9-7.2,16.2-16.2,16.2c-25.4,0-50.8,0-76.1,0
			C71.8,79.9,68.3,55.9,85.1,52.1L85.1,52.1z"/>
	</g>
</g>
</svg>
